<svg width="256" height="256" viewBox="0 0 256 256" fill="none" xmlns="http://www.w3.org/2000/svg" role="img" aria-labelledby="title desc">
  <title id="title">BatonJS icon</title>
  <desc id="desc">A modern geometric B mark built from a baton stem and two flowing agent paths.</desc>
  <defs>
    <linearGradient id="flow" x1="65" y1="184" x2="190" y2="58" gradientUnits="userSpaceOnUse">
      <stop stop-color="#22D3EE"/>
      <stop offset="1" stop-color="#2DD4BF"/>
    </linearGradient>
    <filter id="shadow" x="12" y="16" width="232" height="232" color-interpolation-filters="sRGB" filterUnits="userSpaceOnUse">
      <feDropShadow dx="0" dy="8" stdDeviation="12" flood-color="#020617" flood-opacity="0.18"/>
    </filter>
  </defs>
  <rect x="24" y="24" width="208" height="208" rx="46" fill="#08111F" filter="url(#shadow)"/>
  <path d="M76 184V56" stroke="#F8FAFC" stroke-width="20" stroke-linecap="round"/>
  <path d="M76 66H136C164 66 184 82 184 106C184 130 164 145 136 145H76" stroke="url(#flow)" stroke-width="19" stroke-linecap="round" stroke-linejoin="round"/>
  <path d="M76 112H142C174 112 196 129 196 156C196 179 175 194 142 194H76" stroke="#F8FAFC" stroke-width="19" stroke-linecap="round" stroke-linejoin="round"/>
  <path d="M99 171L176 79" stroke="#22D3EE" stroke-width="8" stroke-linecap="round"/>
  <circle cx="76" cy="56" r="8" fill="#22D3EE"/>
  <circle cx="196" cy="156" r="8" fill="#2DD4BF"/>
</svg>
